<svg xmlns="http://www.w3.org/2000/svg" version="1.1" xmlns:xlink="http://www.w3.org/1999/xlink" xmlns:svgjs="http://svgjs.dev/svgjs" width="1000" height="1000" viewBox="0 0 1000 1000"><rect width="1000" height="1000" fill="#ffffff"></rect><g transform="matrix(0.7,0,0,0.7,149.57575757575756,282.1265587044535)"><svg viewBox="0 0 396 247" data-background-color="#ffffff" preserveAspectRatio="xMidYMid meet" height="623" width="1000" xmlns="http://www.w3.org/2000/svg" xmlns:xlink="http://www.w3.org/1999/xlink"><g id="tight-bounds" transform="matrix(1,0,0,1,0.2400000000000091,-0.09999999999999432)"><svg viewBox="0 0 395.52 247.2" height="247.2" width="395.52"><g><svg></svg></g><g><svg viewBox="0 0 395.52 247.2" height="247.2" width="395.52"><g transform="matrix(1,0,0,1,75.54432,83.07871232)"><svg viewBox="0 0 244.43135999999998 81.04257536" height="81.04257536" width="244.43135999999998"><g><svg viewBox="0 0 244.43135999999998 81.04257536" height="81.04257536" width="244.43135999999998"><g><svg viewBox="0 0 244.43135999999998 81.04257536" height="81.04257536" width="244.43135999999998"><g><svg viewBox="0 0 244.43135999999998 81.04257536" height="81.04257536" width="244.43135999999998"><g><svg viewBox="0 0 244.43135999999998 81.04257536" height="81.04257536" width="244.43135999999998"><g><svg viewBox="0 0 244.43135999999998 81.04257536" height="81.04257536" width="244.43135999999998"><g transform="matrix(1,0,0,1,0,0)"><svg width="244.43135999999998" viewBox="3.5999999046325684 -36.70000076293945 112.48999786376953 37.29999923706055" height="81.04257536" data-palette-color="#919591"><path d="M11.8 0L3.6 0 3.6-32.5 12.4-32.5 19.6-18 22.7-10.7 22.9-10.7Q22.75-12 22.55-13.55 22.35-15.1 22.2-16.73 22.05-18.35 21.93-19.98 21.8-21.6 21.8-23.1L21.8-23.1 21.8-32.5 30-32.5 30 0 21.2 0 14-14.55 10.9-21.8 10.7-21.8Q11-19 11.4-15.7 11.8-12.4 11.8-9.4L11.8-9.4 11.8 0ZM48.1 0.6L48.1 0.6Q45.35 0.6 43-0.28 40.65-1.15 38.92-2.83 37.2-4.5 36.2-6.95 35.2-9.4 35.2-12.5L35.2-12.5Q35.2-15.55 36.22-17.98 37.25-20.4 38.92-22.1 40.6-23.8 42.75-24.7 44.9-25.6 47.2-25.6L47.2-25.6Q49.95-25.6 52-24.65 54.05-23.7 55.4-22.05 56.75-20.4 57.42-18.2 58.1-16 58.1-13.5L58.1-13.5Q58.1-12.35 57.97-11.35 57.85-10.35 57.75-9.9L57.75-9.9 43.5-9.9Q44.1-7.65 45.65-6.78 47.2-5.9 49.3-5.9L49.3-5.9Q50.6-5.9 51.82-6.28 53.05-6.65 54.4-7.4L54.4-7.4 57.2-2.3Q55.15-0.85 52.67-0.13 50.2 0.6 48.1 0.6ZM43.4-15.5L43.4-15.5 50.8-15.5Q50.8-16.95 50.07-18.03 49.35-19.1 47.4-19.1L47.4-19.1Q45.95-19.1 44.87-18.25 43.8-17.4 43.4-15.5ZM72.6 0L64 0 64-18.3 60.7-18.3 60.7-24.7 64-24.95 64-25.3Q64-27.3 64.5-29.13 65-30.95 66.17-32.35 67.35-33.75 69.22-34.58 71.1-35.4 73.9-35.4L73.9-35.4Q75.65-35.4 77-35.1 78.35-34.8 79.2-34.5L79.2-34.5 77.7-28.2Q77.1-28.45 76.45-28.58 75.8-28.7 75.2-28.7L75.2-28.7Q74-28.7 73.3-28.03 72.6-27.35 72.6-25.6L72.6-25.6 72.6-25 76.8-25 76.8-18.3 72.6-18.3 72.6 0ZM89.09 0L80.49 0 80.49-25 89.09-25 89.09 0ZM84.79-28.1L84.79-28.1Q82.69-28.1 81.34-29.3 79.99-30.5 79.99-32.4L79.99-32.4Q79.99-34.3 81.34-35.5 82.69-36.7 84.79-36.7L84.79-36.7Q86.89-36.7 88.24-35.5 89.59-34.3 89.59-32.4L89.59-32.4Q89.59-30.5 88.24-29.3 86.89-28.1 84.79-28.1ZM101.39 0.6L101.39 0.6Q99.64 0.6 98.24-0.03 96.84-0.65 95.87-1.7 94.89-2.75 94.39-4.15 93.89-5.55 93.89-7.1L93.89-7.1Q93.89-11 97.09-13.23 100.29-15.45 107.49-16.2L107.49-16.2Q107.19-18.8 103.99-18.8L103.99-18.8Q102.64-18.8 101.14-18.28 99.64-17.75 97.69-16.7L97.69-16.7 94.69-22.3Q97.34-23.9 100.04-24.75 102.74-25.6 105.69-25.6L105.69-25.6Q110.54-25.6 113.32-22.83 116.09-20.05 116.09-13.9L116.09-13.9 116.09 0 109.09 0 108.49-2.4 108.29-2.4Q106.79-1.05 105.12-0.23 103.44 0.6 101.39 0.6ZM104.39-6L104.39-6Q105.44-6 106.12-6.48 106.79-6.95 107.49-7.7L107.49-7.7 107.49-11.1Q104.39-10.65 103.24-9.75 102.09-8.85 102.09-7.8L102.09-7.8Q102.09-6 104.39-6Z" opacity="1" transform="matrix(1,0,0,1,0,0)" fill="#000000" class="undefined-text-0" data-fill-palette-color="primary" id="text-0"></path></svg></g></svg></g></svg></g></svg></g></svg></g></svg></g></svg></g><path d="M181.993 77.079L181.993 22.151 384.89 22.151 384.89 225.049 181.993 225.049 181.993 170.121 189.301 170.121 189.301 217.74 377.581 217.74 377.581 29.46 189.301 29.46 189.301 77.079Z" fill="#000000" stroke="transparent" data-fill-palette-color="primary"></path></svg></g><defs></defs></svg><rect width="395.52" height="247.2" fill="none" stroke="none" visibility="hidden"></rect></g></svg></g></svg>